<?xml version="1.0" standalone="no"?>
<!DOCTYPE svg PUBLIC "-//W3C//DTD SVG 20010904//EN"
 "http://www.w3.org/TR/2001/REC-SVG-20010904/DTD/svg10.dtd">
<svg version="1.0" xmlns="http://www.w3.org/2000/svg"
 width="628.000000pt" height="628.000000pt" viewBox="0 0 628.000000 628.000000"
 preserveAspectRatio="xMidYMid meet">
<metadata>
Created by potrace 1.14, written by Peter Selinger 2001-2017
</metadata>
<g transform="translate(0.000000,628.000000) scale(0.100000,-0.100000)"
fill="#000000" stroke="none">
<path d="M1975 5958 c-76 -17 -110 -68 -120 -178 -13 -148 -21 -239 -30 -340
-9 -98 -18 -206 -18 -217 0 -10 -131 -13 -621 -13 -700 0 -668 3 -713 -76
l-23 -39 3 -2000 2 -2000 23 -30 c48 -60 45 -60 320 -63 l252 -3 1 -32 c0 -18
2 -40 4 -49 2 -9 6 -54 10 -100 3 -46 8 -96 10 -113 2 -16 6 -66 10 -110 9
-121 14 -147 33 -178 30 -52 66 -71 130 -71 58 0 237 12 269 18 10 2 54 7 98
10 44 4 94 8 110 10 17 2 68 7 115 11 47 3 101 8 120 10 19 3 64 7 100 10 83
6 175 15 220 20 19 3 71 7 115 10 44 3 91 7 105 10 14 2 61 6 105 10 76 6 125
10 225 20 58 6 148 14 230 20 36 3 81 8 100 10 19 2 69 7 110 10 41 3 91 7
110 10 19 2 71 7 115 10 44 4 91 8 105 10 14 2 65 7 114 10 49 4 96 8 105 10
9 1 59 6 111 10 52 4 109 8 125 10 38 5 156 16 217 20 46 3 138 12 208 20 19
2 71 7 115 10 44 3 91 8 105 10 14 2 63 6 110 10 47 4 101 8 120 10 19 2 71 7
115 10 136 12 167 20 197 53 36 38 50 90 43 159 -3 32 -7 78 -10 103 -2 25 -7
77 -10 115 -4 39 -8 86 -10 105 -2 19 -6 70 -10 112 -3 42 -8 87 -10 99 -4 21
-3 21 93 15 103 -7 184 -15 217 -21 29 -4 93 19 121 46 40 37 45 65 69 369 3
41 8 95 10 120 3 25 7 74 10 110 4 60 9 109 21 235 7 79 13 145 19 220 3 39 8
88 10 110 3 22 7 74 10 115 3 41 7 89 9 105 2 17 7 71 10 120 4 50 9 106 11
125 2 19 7 69 10 110 4 41 8 93 10 115 2 22 7 74 10 115 7 82 11 124 20 215 3
33 8 87 10 120 3 33 7 80 10 105 2 25 7 82 10 127 3 45 7 90 9 100 2 10 7 61
10 113 4 52 9 106 11 120 3 14 7 63 11 110 3 47 7 99 8 115 2 17 7 68 10 115
4 47 9 96 11 110 2 14 7 66 10 115 4 50 9 106 11 125 1 19 5 64 8 100 8 99 17
202 22 235 9 70 5 143 -9 171 -32 61 -70 81 -173 89 -43 4 -97 9 -119 11 -22
2 -74 6 -115 9 -41 3 -91 8 -110 10 -19 2 -71 7 -115 10 -44 4 -98 8 -120 11
-22 2 -69 6 -105 9 -36 4 -83 8 -105 10 -22 2 -71 6 -110 10 -38 3 -92 8 -120
10 -27 3 -84 7 -125 11 -41 3 -88 7 -105 9 -16 1 -70 5 -120 9 -49 4 -101 9
-115 11 -14 3 -61 7 -105 11 -44 4 -93 8 -110 9 -16 1 -75 6 -130 10 -55 4
-107 9 -116 10 -9 2 -56 6 -105 10 -49 3 -100 8 -114 10 -14 2 -61 7 -105 10
-44 4 -98 9 -120 11 -22 2 -74 6 -115 9 -41 3 -97 8 -125 11 -59 5 -138 12
-220 19 -33 3 -78 7 -100 10 -38 4 -87 8 -240 20 -38 3 -88 7 -110 10 -22 2
-69 7 -105 10 -36 3 -92 8 -125 11 -33 4 -80 8 -105 9 -78 5 -205 17 -210 19
-3 2 -23 -1 -45 -6z"/>
</g>
</svg>
